<svg width="41" height="49" viewBox="0 0 41 49" fill="none" xmlns="http://www.w3.org/2000/svg">
<path d="M38.1074 12.5315C38.0628 12.0033 37.6179 11.5986 37.0878 11.6038H29.3383V8.6671C29.3383 3.88028 25.4577 0 20.6712 0C15.8844 0 12.0041 3.88028 12.0041 8.6671V11.6038H4.25474C3.72699 11.6058 3.28646 12.0065 3.23508 12.5315L0.563654 43.2439C0.442171 44.6678 0.923323 46.0778 1.8908 47.1306C2.85789 48.1829 4.22208 48.7815 5.65159 48.7803H35.7009C37.1304 48.7815 38.4946 48.1829 39.4616 47.1306C40.4291 46.0778 40.9107 44.6678 40.7892 43.2439L38.1074 12.5315ZM14.0435 8.6671C14.0435 5.00669 17.0108 2.03932 20.6712 2.03932C24.3317 2.03932 27.299 5.00669 27.299 8.6671V11.6038H14.0435V8.6671ZM37.9545 45.752C37.3777 46.3869 36.5584 46.7466 35.7009 46.741H5.64124C4.78369 46.7414 3.96557 46.3817 3.38564 45.75C2.80611 45.1179 2.51813 44.2715 2.59262 43.4172L5.18239 13.6431H12.0041V20.0056C10.3643 20.5103 9.34029 22.1382 9.5956 23.8349C9.85052 25.5313 11.3083 26.786 13.0238 26.786C14.7393 26.786 16.1967 25.5313 16.452 23.8349C16.7069 22.1382 15.6829 20.5103 14.0435 20.0056V13.6328H27.299V20.0056C25.6592 20.5103 24.6352 22.1382 24.8905 23.8349C25.1454 25.5313 26.6032 26.786 28.3187 26.786C30.0342 26.786 31.4916 25.5313 31.7469 23.8349C32.0018 22.1382 30.9778 20.5103 29.3383 20.0056V13.6328H36.1497L38.7395 43.4068C38.8232 44.2648 38.5376 45.1175 37.9545 45.752ZM12.8709 21.9024C12.9724 21.9159 13.0752 21.9159 13.1768 21.9024C13.9307 21.9836 14.49 22.6408 14.4493 23.398C14.4083 24.1556 13.7822 24.749 13.0238 24.749C12.265 24.749 11.6389 24.1556 11.5983 23.398C11.5576 22.6408 12.1165 21.9836 12.8709 21.9024ZM28.1657 21.9024C28.2673 21.9159 28.3701 21.9159 28.4716 21.9024C29.2256 21.9836 29.7848 22.6408 29.7442 23.398C29.7032 24.1556 29.0771 24.749 28.3187 24.749C27.5599 24.749 26.9338 24.1556 26.8932 23.398C26.8525 22.6408 27.4114 21.9836 28.1657 21.9024Z" fill="black"/>
<path opacity="0.8" d="M23.187 34H27C27.1022 34 27.2019 34.0313 27.2858 34.0897C27.3697 34.1482 27.4336 34.2309 27.469 34.3268C27.5045 34.4227 27.5096 34.5271 27.4839 34.626C27.4581 34.7249 27.4027 34.8136 27.325 34.88L22.367 39.121L17.343 43.864C16.953 44.232 16.336 43.811 16.536 43.314L19.474 36H17C16.9172 36.0001 16.8357 35.9796 16.7628 35.9404C16.6899 35.9012 16.6278 35.8445 16.5822 35.7754C16.5366 35.7063 16.5089 35.627 16.5015 35.5445C16.4941 35.4621 16.5074 35.3791 16.54 35.303L19.54 28.303C19.5786 28.213 19.6427 28.1363 19.7245 28.0824C19.8063 28.0286 19.9021 27.9999 20 28H25C25.0828 27.9999 25.1643 28.0204 25.2372 28.0596C25.3101 28.0988 25.3721 28.1555 25.4177 28.2246C25.4633 28.2937 25.4911 28.373 25.4984 28.4555C25.5058 28.5379 25.4926 28.6209 25.46 28.697L23.187 34Z" fill="#348CDC"/>
<path fill-rule="evenodd" clip-rule="evenodd" d="M26 32.5H22.187L24.46 27.197C24.4926 27.1209 24.5058 27.0379 24.4984 26.9555C24.4911 26.873 24.4633 26.7937 24.4177 26.7246C24.3721 26.6555 24.3101 26.5988 24.2372 26.5596C24.1643 26.5204 24.0828 26.4999 24 26.5H19C18.9021 26.4999 18.8063 26.5286 18.7245 26.5824C18.6427 26.6363 18.5786 26.713 18.54 26.803L15.54 33.803C15.5074 33.8791 15.4941 33.9621 15.5015 34.0445C15.5089 34.127 15.5366 34.2063 15.5822 34.2754C15.6278 34.3445 15.6899 34.4012 15.7628 34.4404C15.8357 34.4796 15.9172 34.5001 16 34.5H18.474L15.536 41.814C15.336 42.311 15.953 42.732 16.343 42.364L21.367 37.621L26.325 33.38C26.4027 33.3136 26.4581 33.2249 26.4839 33.126C26.5096 33.0271 26.5045 32.9227 26.469 32.8268C26.4336 32.7309 26.3697 32.6482 26.2858 32.5897C26.2019 32.5313 26.1022 32.5 26 32.5ZM21.429 33.5H24.646L20.698 36.878L17.313 40.073L19.678 34.186C19.7084 34.1101 19.7197 34.028 19.711 33.9467C19.7023 33.8655 19.6738 33.7876 19.628 33.7199C19.5822 33.6522 19.5205 33.5967 19.4484 33.5584C19.3762 33.5201 19.2957 33.5 19.214 33.5H16.758L19.33 27.5H23.242L20.969 32.803C20.9364 32.8791 20.9231 32.9621 20.9305 33.0445C20.9379 33.127 20.9656 33.2063 21.0112 33.2754C21.0568 33.3445 21.1189 33.4012 21.1918 33.4404C21.2647 33.4796 21.3462 33.5001 21.429 33.5Z" fill="#348CDC"/>
</svg>
